<svg width="25" height="18" viewBox="0 0 25 18" fill="none" xmlns="http://www.w3.org/2000/svg">
<g clip-path="url(#clip0_146_2)">
<path d="M24.8489 8.36627C22.4952 3.77383 17.8355 0.666626 12.5 0.666626C7.16447 0.666626 2.50345 3.776 0.151018 8.36671C0.0517306 8.56311 0 8.7801 0 9.00017C0 9.22024 0.0517306 9.43723 0.151018 9.63364C2.50475 14.2261 7.16447 17.3333 12.5 17.3333C17.8355 17.3333 22.4965 14.224 24.8489 9.6332C24.9482 9.4368 25 9.21981 25 8.99974C25 8.77967 24.9482 8.56268 24.8489 8.36627ZM12.5 15.25C11.2638 15.25 10.0555 14.8834 9.02766 14.1967C7.99985 13.5099 7.19878 12.5338 6.72573 11.3918C6.25268 10.2497 6.12891 8.99302 6.37007 7.78064C6.61123 6.56826 7.20648 5.45462 8.08056 4.58054C8.95464 3.70646 10.0683 3.1112 11.2807 2.87005C12.493 2.62889 13.7497 2.75266 14.8917 3.22571C16.0338 3.69876 17.0099 4.49983 17.6967 5.52764C18.3834 6.55545 18.75 7.76382 18.75 8.99995C18.7504 9.82083 18.589 10.6338 18.275 11.3922C17.9611 12.1507 17.5007 12.8399 16.9203 13.4203C16.3398 14.0008 15.6507 14.4611 14.8922 14.7751C14.1338 15.089 13.3209 15.2504 12.5 15.25ZM12.5 4.83329C12.1281 4.83849 11.7586 4.89382 11.4015 4.99778C11.6958 5.39782 11.8371 5.8901 11.7996 6.38535C11.7621 6.8806 11.5484 7.34602 11.1972 7.69722C10.846 8.04842 10.3806 8.26212 9.88537 8.29959C9.39012 8.33706 8.89784 8.1958 8.49781 7.90143C8.27001 8.74066 8.31113 9.6302 8.61538 10.4449C8.91962 11.2595 9.47167 11.9582 10.1938 12.4427C10.916 12.9271 11.7719 13.1729 12.641 13.1455C13.5102 13.118 14.3489 12.8187 15.039 12.2896C15.7291 11.7606 16.236 11.0284 16.4882 10.1962C16.7404 9.36391 16.7253 8.47356 16.445 7.65038C16.1647 6.8272 15.6333 6.11264 14.9256 5.60729C14.2179 5.10194 13.3696 4.83124 12.5 4.83329Z" fill="#A3462F"/>
</g>
<defs>
<clipPath id="clip0_146_2">
<rect width="25" height="18" fill="white"/>
</clipPath>
</defs>
</svg>
