<svg width="62" height="62" viewBox="0 0 62 62" fill="none" xmlns="http://www.w3.org/2000/svg">
<path d="M55.0625 0.375H6.9375C5.19702 0.375 3.52782 1.0664 2.29711 2.29711C1.0664 3.52782 0.375 5.19702 0.375 6.9375V55.0625C0.375 56.803 1.0664 58.4722 2.29711 59.7029C3.52782 60.9336 5.19702 61.625 6.9375 61.625H25.7021V40.8014H17.0889V31H25.7021V23.5297C25.7021 15.0326 30.7607 10.3391 38.5086 10.3391C42.2191 10.3391 46.0992 11.0008 46.0992 11.0008V19.3406H41.824C37.6117 19.3406 36.2979 21.9547 36.2979 24.6357V31H45.7014L44.1975 40.8014H36.2979V61.625H55.0625C56.803 61.625 58.4722 60.9336 59.7029 59.7029C60.9336 58.4722 61.625 56.803 61.625 55.0625V6.9375C61.625 5.19702 60.9336 3.52782 59.7029 2.29711C58.4722 1.0664 56.803 0.375 55.0625 0.375Z" fill="#A3462F"/>
</svg>
