<svg width="62" height="62" viewBox="0 0 62 62" fill="none" xmlns="http://www.w3.org/2000/svg">
<path d="M57.25 0.375H4.73633C2.33008 0.375 0.375 2.35742 0.375 4.79102V57.209C0.375 59.6426 2.33008 61.625 4.73633 61.625H57.25C59.6562 61.625 61.625 59.6426 61.625 57.209V4.79102C61.625 2.35742 59.6562 0.375 57.25 0.375ZM18.8867 52.875H9.8086V23.6445H18.9004V52.875H18.8867ZM14.3477 19.6523C11.4355 19.6523 9.084 17.2871 9.084 14.3887C9.084 11.4902 11.4355 9.125 14.3477 9.125C17.2461 9.125 19.6113 11.4902 19.6113 14.3887C19.6113 17.3008 17.2598 19.6523 14.3477 19.6523ZM52.916 52.875H43.8379V38.6562C43.8379 35.2656 43.7695 30.9043 39.1211 30.9043C34.3906 30.9043 33.666 34.5957 33.666 38.4102V52.875H24.5879V23.6445H33.2969V27.6367H33.4199C34.6367 25.3398 37.6035 22.9199 42.0195 22.9199C51.207 22.9199 52.916 28.9766 52.916 36.8516V52.875Z" fill="#A3462F"/>
</svg>
